<?xml version="1.0" encoding="UTF-8"?>
<svg id="Ebene_1" xmlns="http://www.w3.org/2000/svg" version="1.1" viewBox="0 0 119.06 68.03">
  <!-- Generator: Adobe Illustrator 30.2.1, SVG Export Plug-In . SVG Version: 2.1.1 Build 1)  -->
  <defs>
    <style>
      .st0 {
        fill: #231f20;
      }

      .st1 {
        fill: #ee2b56;
      }
    </style>
  </defs>
  <g>
    <rect class="st1" x="3.11" y="17.94" width="20.75" height="20.75"/>
    <rect class="st1" x="25.93" y="17.94" width="20.75" height="20.75"/>
    <rect class="st1" x="48.75" y="17.94" width="20.74" height="20.75"/>
    <rect class="st1" x="13.48" y="28.31" width="20.75" height="20.75"/>
    <rect class="st1" x="38.38" y="7.57" width="20.74" height="20.75"/>
  </g>
  <g>
    <g>
      <path class="st0" d="M78.21,21.27h-6.64v-3.32h17.12v3.32h-6.64v17.37h-3.84v-17.37Z"/>
      <path class="st0" d="M107.94,31.04c0,1.25-.22,2.37-.67,3.37-.45,1-1.06,1.86-1.83,2.56-.78.7-1.69,1.24-2.75,1.62-1.06.38-2.21.57-3.46.57s-2.39-.19-3.45-.57c-1.06-.38-1.98-.92-2.77-1.62-.79-.7-1.4-1.55-1.83-2.56-.44-1-.66-2.13-.66-3.37v-13.09h3.84v12.96c0,.51.08,1.04.24,1.59.16.55.43,1.07.81,1.53.38.47.88.85,1.5,1.15.62.3,1.39.45,2.31.45s1.69-.15,2.32-.45c.62-.3,1.12-.69,1.5-1.15.38-.47.65-.98.81-1.53.16-.55.25-1.09.25-1.59v-12.96h3.84v13.09Z"/>
    </g>
    <g>
      <path class="st0" d="M86.37,41.49c-.76-.33-1.75-.49-2.53-.49-2.29,0-3.56,1.44-3.56,3.32s1.24,3.26,3.33,3.26c.54,0,.96-.05,1.3-.13v-2.39h-2.08v-1.44h3.97v4.93c-1.04.26-2.13.47-3.18.47-3.18,0-5.39-1.48-5.39-4.58s2.06-4.89,5.39-4.89c1.14,0,2.04.14,2.89.38l-.13,1.55Z"/>
      <path class="st0" d="M88.73,42.12h1.68v1.53h.03c.08-.63.86-1.69,1.98-1.69.18,0,.38,0,.58.05v1.77c-.17-.09-.51-.14-.84-.14-1.53,0-1.53,1.78-1.53,2.75v2.48h-1.89v-6.75Z"/>
      <path class="st0" d="M94.48,42.47c.73-.32,1.72-.51,2.52-.51,2.21,0,3.12.85,3.12,2.85v.87c0,.68.01,1.19.03,1.69.01.51.04.98.08,1.51h-1.66c-.07-.35-.07-.8-.08-1.01h-.03c-.44.75-1.38,1.17-2.24,1.17-1.28,0-2.53-.72-2.53-2.01,0-1.01.52-1.6,1.24-1.93.72-.33,1.65-.39,2.44-.39h1.04c0-1.09-.52-1.46-1.63-1.46-.8,0-1.6.29-2.24.73l-.06-1.51ZM96.7,47.75c.58,0,1.03-.24,1.32-.6.31-.38.39-.87.39-1.39h-.82c-.84,0-2.1.13-2.1,1.17,0,.58.52.83,1.2.83Z"/>
      <path class="st0" d="M101.68,42.12h5.74v1.44l-3.6,3.95h3.73v1.36h-6.02v-1.43l3.67-3.96h-3.52v-1.36Z"/>
    </g>
  </g>
  <rect class="st1" x="109.07" y="42.15" width="6.91" height="6.91"/>
  <g>
    <path class="st0" d="M6.11,58.75v-.72h2.59v2.27c-.4.32-.81.55-1.23.71-.42.16-.86.24-1.3.24-.6,0-1.15-.13-1.64-.39-.49-.26-.86-.63-1.11-1.12-.25-.49-.37-1.03-.37-1.63s.12-1.15.37-1.67c.25-.52.61-.9,1.07-1.15.47-.25,1.01-.38,1.62-.38.44,0,.84.07,1.2.22.36.14.64.34.84.6.2.26.36.59.46,1l-.73.2c-.09-.31-.21-.56-.34-.74-.14-.18-.33-.32-.58-.43-.25-.11-.53-.16-.84-.16-.37,0-.69.06-.96.17-.27.11-.49.26-.65.45-.17.18-.29.39-.39.61-.16.38-.23.79-.23,1.23,0,.55.09,1,.28,1.37.19.37.46.64.82.82.36.18.74.27,1.14.27.35,0,.69-.07,1.03-.2.33-.14.59-.28.76-.43v-1.14h-1.8Z"/>
    <path class="st0" d="M9.79,61.15v-4.43h.67v.67c.17-.31.33-.52.48-.62.15-.1.31-.15.48-.15.25,0,.51.08.77.24l-.26.7c-.18-.11-.37-.16-.55-.16-.16,0-.31.05-.44.15-.13.1-.22.24-.28.41-.08.27-.12.56-.12.88v2.32h-.75Z"/>
    <path class="st0" d="M15.55,60.6c-.28.24-.55.41-.8.51-.26.1-.54.15-.83.15-.49,0-.86-.12-1.13-.36-.26-.24-.39-.54-.39-.91,0-.22.05-.41.15-.59.1-.18.23-.32.39-.43.16-.11.34-.19.54-.25.15-.04.37-.08.67-.11.61-.07,1.06-.16,1.35-.26,0-.1,0-.17,0-.2,0-.3-.07-.52-.21-.64-.19-.17-.48-.25-.86-.25-.35,0-.62.06-.79.19-.17.12-.29.34-.37.66l-.73-.1c.07-.31.18-.57.33-.76.15-.19.38-.34.66-.45.29-.1.63-.16,1.01-.16s.69.04.92.13c.24.09.41.2.52.34.11.13.19.31.23.51.02.13.04.36.04.69v1c0,.7.02,1.14.05,1.32.03.18.09.36.18.53h-.78c-.07-.16-.12-.34-.14-.55ZM15.49,58.92c-.27.11-.69.21-1.23.29-.31.04-.53.09-.66.15-.13.06-.23.14-.3.25-.07.11-.11.23-.11.36,0,.2.08.37.23.5.15.13.38.2.67.2s.55-.06.78-.19c.23-.13.39-.3.5-.52.08-.17.12-.42.12-.75v-.28Z"/>
    <path class="st0" d="M17,61.15v-.61l2.82-3.22c-.32.02-.6.02-.85.02h-1.8v-.62h3.62v.5l-2.4,2.8-.47.52c.34-.03.65-.05.95-.05h2.05v.65h-3.92Z"/>
    <path class="st0" d="M28.14,55.03h.81v3.53c0,.61-.07,1.1-.21,1.46-.14.36-.39.66-.75.88-.36.23-.84.34-1.43.34s-1.04-.1-1.4-.3c-.36-.2-.62-.48-.78-.86-.16-.37-.23-.88-.23-1.53v-3.53h.81v3.53c0,.53.05.92.15,1.17.1.25.27.45.51.58.24.14.53.21.88.21.59,0,1.02-.13,1.27-.4.25-.27.38-.79.38-1.56v-3.53Z"/>
    <path class="st0" d="M30.2,61.15v-4.43h.67v.63c.33-.49.8-.73,1.41-.73.27,0,.51.05.74.14.22.1.39.22.5.38.11.16.19.34.23.55.03.14.04.38.04.73v2.72h-.75v-2.7c0-.31-.03-.54-.09-.69-.06-.15-.16-.27-.31-.36-.15-.09-.32-.14-.52-.14-.32,0-.6.1-.83.3-.23.2-.35.59-.35,1.16v2.42h-.75Z"/>
    <path class="st0" d="M34.96,55.89v-.85h.75v.85h-.75ZM34.96,61.15v-4.43h.75v4.43h-.75Z"/>
    <path class="st0" d="M38.06,61.15l-1.67-4.43h.8l.95,2.65c.1.29.2.58.29.89.07-.23.16-.51.28-.84l.98-2.7h.77l-1.68,4.43h-.72Z"/>
    <path class="st0" d="M44.15,59.72l.77.1c-.12.45-.35.8-.68,1.05-.33.25-.75.37-1.27.37-.65,0-1.16-.2-1.54-.6-.38-.4-.57-.96-.57-1.68s.19-1.32.58-1.74c.38-.41.88-.62,1.49-.62s1.08.2,1.45.61c.38.4.56.97.56,1.7,0,.04,0,.11,0,.2h-3.31c.03.49.17.86.41,1.12.25.26.56.39.93.39.28,0,.51-.07.71-.22.2-.15.35-.38.46-.7ZM41.68,58.51h2.48c-.03-.37-.13-.65-.29-.84-.24-.29-.55-.43-.93-.43-.35,0-.64.12-.87.35-.24.23-.37.54-.39.93Z"/>
    <path class="st0" d="M45.86,61.15v-4.43h.67v.67c.17-.31.33-.52.48-.62.15-.1.31-.15.48-.15.25,0,.51.08.77.24l-.26.7c-.18-.11-.37-.16-.55-.16-.16,0-.31.05-.44.15-.13.1-.22.24-.28.41-.08.27-.12.56-.12.88v2.32h-.75Z"/>
    <path class="st0" d="M48.41,59.83l.74-.12c.04.3.16.53.35.68.19.16.46.24.8.24s.6-.07.77-.21c.17-.14.25-.31.25-.5,0-.17-.07-.3-.22-.4-.1-.07-.36-.15-.77-.25-.55-.14-.93-.26-1.15-.36-.21-.1-.37-.24-.48-.42-.11-.18-.16-.38-.16-.59,0-.2.04-.38.14-.55.09-.17.21-.31.37-.42.12-.09.28-.16.48-.22.2-.06.42-.09.65-.09.35,0,.65.05.92.15.26.1.46.24.58.41.12.17.21.4.26.69l-.73.1c-.03-.23-.13-.41-.29-.53-.16-.13-.39-.19-.68-.19-.35,0-.59.06-.74.17-.15.11-.22.25-.22.4,0,.1.03.19.09.26.06.08.16.15.29.2.08.03.3.09.66.19.53.14.9.26,1.11.35.21.09.37.22.49.39.12.17.18.39.18.64s-.07.49-.22.71c-.15.22-.36.39-.63.51s-.59.18-.93.18c-.58,0-1.01-.12-1.32-.36-.3-.24-.5-.59-.58-1.06Z"/>
    <path class="st0" d="M52.98,55.89v-.85h.75v.85h-.75ZM52.98,61.15v-4.43h.75v4.43h-.75Z"/>
    <path class="st0" d="M56.51,60.48l.1.66c-.21.04-.4.07-.57.07-.27,0-.48-.04-.63-.13-.15-.09-.26-.2-.32-.34-.06-.14-.09-.44-.09-.88v-2.54h-.55v-.59h.55v-1.1l.75-.45v1.55h.76v.59h-.76v2.58c0,.21.01.35.04.41.03.06.07.11.13.14.06.04.15.05.26.05.08,0,.19,0,.33-.03Z"/>
    <path class="st0" d="M57.21,62.86l-.09-.7c.16.04.31.07.43.07.17,0,.3-.03.4-.08.1-.05.18-.13.25-.23.05-.08.12-.26.23-.56.01-.04.04-.1.07-.18l-1.69-4.45h.8l.93,2.55c.12.32.23.66.32,1.02.09-.33.19-.67.31-.99l.95-2.58h.75l-1.67,4.51c-.18.49-.32.82-.42,1-.13.25-.29.43-.46.54-.17.12-.38.17-.62.17-.14,0-.31-.03-.49-.09Z"/>
    <path class="st0" d="M63.61,58.94c0-.82.23-1.43.68-1.82.38-.33.85-.49,1.39-.49.61,0,1.11.2,1.49.6.39.4.58.95.58,1.65,0,.57-.09,1.02-.26,1.35-.17.33-.42.58-.75.76-.33.18-.68.27-1.07.27-.62,0-1.12-.2-1.5-.6-.38-.4-.57-.97-.57-1.72ZM64.38,58.94c0,.57.12.99.37,1.27.25.28.56.42.93.42s.68-.14.93-.43c.25-.28.37-.72.37-1.3,0-.55-.12-.96-.37-1.24-.25-.28-.56-.42-.93-.42s-.69.14-.93.42c-.25.28-.37.7-.37,1.27Z"/>
    <path class="st0" d="M68.81,61.15v-3.84h-.66v-.59h.66v-.47c0-.3.03-.52.08-.66.07-.19.2-.35.38-.47.18-.12.44-.18.77-.18.21,0,.44.03.7.08l-.11.65c-.16-.03-.3-.04-.44-.04-.23,0-.39.05-.48.15-.1.1-.14.28-.14.55v.41h.86v.59h-.86v3.84h-.75Z"/>
    <path class="st0" d="M74.88,61.15v-5.4h-2.02v-.72h4.84v.72h-2.02v5.4h-.81Z"/>
    <path class="st0" d="M80.53,59.72l.77.1c-.12.45-.35.8-.68,1.05-.33.25-.75.37-1.27.37-.65,0-1.16-.2-1.54-.6-.38-.4-.57-.96-.57-1.68s.19-1.32.58-1.74c.38-.41.88-.62,1.49-.62s1.08.2,1.45.61c.37.4.56.97.56,1.7,0,.04,0,.11,0,.2h-3.31c.03.49.17.86.41,1.12.25.26.56.39.93.39.28,0,.51-.07.71-.22.2-.15.35-.38.46-.7ZM78.06,58.51h2.48c-.03-.37-.13-.65-.29-.84-.24-.29-.55-.43-.93-.43-.35,0-.64.12-.87.35-.24.23-.37.54-.39.93Z"/>
    <path class="st0" d="M85.14,59.53l.73.1c-.08.51-.29.91-.62,1.19-.33.29-.74.43-1.22.43-.6,0-1.09-.2-1.46-.59-.37-.4-.55-.96-.55-1.7,0-.48.08-.9.24-1.26.16-.36.4-.63.72-.81.32-.18.68-.27,1.06-.27.48,0,.87.12,1.18.37.3.24.5.59.59,1.04l-.73.11c-.07-.3-.19-.52-.37-.67-.18-.15-.39-.23-.64-.23-.38,0-.68.14-.92.41-.24.27-.35.7-.35,1.29s.11,1.03.34,1.3c.23.27.53.4.89.4.29,0,.54-.09.74-.27.2-.18.32-.46.37-.84Z"/>
    <path class="st0" d="M86.51,61.15v-6.12h.75v2.2c.35-.41.79-.61,1.32-.61.33,0,.61.06.85.19.24.13.41.31.52.54.1.23.16.56.16.99v2.81h-.75v-2.81c0-.37-.08-.65-.24-.82-.16-.17-.39-.26-.69-.26-.22,0-.43.06-.62.17-.2.12-.34.27-.42.47-.08.2-.12.47-.12.82v2.42h-.75Z"/>
    <path class="st0" d="M91.26,61.15v-4.43h.67v.63c.33-.49.8-.73,1.41-.73.27,0,.51.05.74.14.22.1.39.22.5.38.11.16.19.34.23.55.03.14.04.38.04.73v2.72h-.75v-2.7c0-.31-.03-.54-.09-.69-.06-.15-.16-.27-.31-.36-.15-.09-.32-.14-.52-.14-.32,0-.6.1-.83.3-.23.2-.35.59-.35,1.16v2.42h-.75Z"/>
    <path class="st0" d="M95.73,58.94c0-.82.23-1.43.68-1.82.38-.33.85-.49,1.39-.49.61,0,1.11.2,1.49.6.39.4.58.95.58,1.65,0,.57-.09,1.02-.26,1.35-.17.33-.42.58-.75.76-.33.18-.68.27-1.07.27-.62,0-1.12-.2-1.5-.6-.38-.4-.57-.97-.57-1.72ZM96.5,58.94c0,.57.12.99.37,1.27.25.28.56.42.93.42s.68-.14.93-.43c.25-.28.37-.72.37-1.3,0-.55-.12-.96-.37-1.24-.25-.28-.56-.42-.93-.42s-.69.14-.93.42c-.25.28-.37.7-.37,1.27Z"/>
    <path class="st0" d="M100.74,61.15v-6.12h.75v6.12h-.75Z"/>
    <path class="st0" d="M102.38,58.94c0-.82.23-1.43.68-1.82.38-.33.84-.49,1.39-.49.61,0,1.11.2,1.49.6.39.4.58.95.58,1.65,0,.57-.09,1.02-.26,1.35-.17.33-.42.58-.75.76-.33.18-.68.27-1.07.27-.62,0-1.12-.2-1.5-.6-.38-.4-.57-.97-.57-1.72ZM103.15,58.94c0,.57.12.99.37,1.27.25.28.56.42.93.42s.68-.14.93-.43c.25-.28.37-.72.37-1.3,0-.55-.12-.96-.37-1.24-.25-.28-.56-.42-.93-.42s-.69.14-.93.42c-.25.28-.37.7-.37,1.27Z"/>
    <path class="st0" d="M107.27,61.52l.73.1c.03.23.12.39.26.49.19.14.44.21.76.21.35,0,.62-.07.81-.21.19-.14.32-.33.38-.58.04-.15.06-.47.05-.96-.33.39-.74.58-1.23.58-.61,0-1.08-.22-1.41-.66-.33-.44-.5-.97-.5-1.58,0-.42.08-.81.23-1.17.15-.36.37-.63.67-.83.29-.19.63-.29,1.02-.29.52,0,.95.21,1.29.64v-.54h.7v3.83c0,.69-.07,1.18-.21,1.47-.14.29-.36.51-.67.68-.3.17-.68.25-1.12.25-.53,0-.96-.12-1.28-.36-.33-.24-.48-.59-.47-1.07ZM107.89,58.86c0,.58.12,1,.35,1.27s.52.4.87.4.63-.13.87-.4c.23-.26.35-.68.35-1.25s-.12-.95-.36-1.22c-.24-.27-.53-.41-.87-.41s-.62.13-.85.41c-.23.27-.35.67-.35,1.21Z"/>
    <path class="st0" d="M112.12,62.86l-.09-.7c.16.04.31.07.43.07.17,0,.3-.03.4-.08.1-.05.18-.13.25-.23.05-.08.12-.26.23-.56.01-.04.04-.1.07-.18l-1.69-4.45h.8l.93,2.55c.12.32.23.66.32,1.02.09-.33.19-.67.31-.99l.95-2.58h.75l-1.67,4.51c-.18.49-.32.82-.42,1-.13.25-.29.43-.46.54-.17.12-.38.17-.62.17-.14,0-.31-.03-.49-.09Z"/>
  </g>
</svg>